<svg id="Capa_1" enable-background="new 0 0 512 512" height="512" viewBox="0 0 512 512" width="512" xmlns="http://www.w3.org/2000/svg"><g><g><g><g><path d="m441.341 225.213v265.067c0 11.996-9.723 21.72-21.72 21.72h-327.243c-11.997 0-21.72-9.723-21.72-21.72v-265.067c0-11.996 9.723-21.72 21.72-21.72h327.243c11.997 0 21.72 9.724 21.72 21.72z" fill="#ff8f33"/><path d="m411.165 203.493c-3.49 158.633-133.178 286.164-292.651 286.164-16.297 0-32.283-1.332-47.856-3.895v-260.549c0-11.996 9.723-21.72 21.72-21.72z" fill="#ffaf40"/><path d="m365.489 203.493c-3.475 133.417-112.725 240.502-246.975 240.502-16.377 0-32.377-1.593-47.856-4.634v-214.148c0-11.996 9.723-21.72 21.72-21.72z" fill="#ffc751"/><g><g><g><path d="m70.659 305.455v115.021c0 8.801 7.134 15.935 15.935 15.935s15.935-7.134 15.935-15.935v-115.021c0-8.801-7.134-15.935-15.935-15.935s-15.935 7.135-15.935 15.935z" fill="#fff370"/></g></g><circle cx="86.593" cy="259.488" fill="#fff370" r="15.935"/></g></g><g><g><path d="m413.151 396.206-16.928-24.992c-2.872-4.24-9.117-4.24-11.988 0l-16.928 24.992c-3.256 4.808.188 11.3 5.994 11.3h33.857c5.805 0 9.249-6.492 5.993-11.3z" fill="#79ff79"/><path d="m407.156 407.506h-13.423c1.853-3.938 2.889-8.34 2.889-12.981 0-9.796-4.605-18.512-11.765-24.109 3.077-3.417 8.688-3.157 11.367.796l16.927 24.992c3.258 4.808-.188 11.302-5.995 11.302z" fill="#29e088"/></g><g><path d="m405.004 486.116c5.194 0 9.405-4.211 9.405-9.405v-40.305c0-5.194-4.211-9.405-9.405-9.405-5.194 0-9.405 4.211-9.405 9.405v40.305c0 5.194 4.211 9.405 9.405 9.405z" fill="#ac92dd"/><path d="m405.004 486.116c5.194 0 9.405-4.211 9.405-9.405v-25.529c0-5.194-4.211-9.405-9.405-9.405-5.194 0-9.405 4.211-9.405 9.405v25.529c0 5.194 4.211 9.405 9.405 9.405z" fill="#9566d1"/></g><g><path d="m375.453 471.34c5.194 0 9.405-4.211 9.405-9.405v-25.529c0-5.194-4.211-9.405-9.405-9.405-5.194 0-9.405 4.211-9.405 9.405v25.529c0 5.194 4.21 9.405 9.405 9.405z" fill="#ac92dd"/><path d="m375.453 471.34c5.194 0 9.405-4.211 9.405-9.405v-10.753c0-5.194-4.211-9.405-9.405-9.405-5.194 0-9.405 4.211-9.405 9.405v10.753c0 5.194 4.21 9.405 9.405 9.405z" fill="#9566d1"/></g></g><path d="m302.944 203.493v81.188c0 11.996-9.731 21.72-21.72 21.72h-50.448c-11.041 0-20.17-8.246-21.531-18.925-.13-.912-.188-1.846-.188-2.794v-81.188h93.887z" fill="#e0006b"/><path d="m277.51 228.124c0 33.101-26.831 59.932-59.932 59.932-2.831 0-5.611-.195-8.333-.579-.13-.912-.188-1.846-.188-2.794v-81.188h63.175c3.388 7.514 5.278 15.847 5.278 24.629z" fill="#fe2582"/><g><g><path d="m238.016 203.493v50.969c0 8-6.48 14.48-14.48 14.48-7.993 0-14.48-6.48-14.48-14.48v-50.969z" fill="#fc70b2"/></g></g></g></g><g><path d="m189.395 106.025h14.139v58.518c0 10.886 8.824 19.71 19.71 19.71h65.511c10.886 0 19.71-8.824 19.71-19.71v-58.518h14.139c17.56 0 26.354-21.23 13.937-33.647l-66.604-66.605c-7.697-7.697-20.177-7.697-27.874 0l-66.605 66.605c-12.417 12.417-3.623 33.647 13.937 33.647z" fill="#1cc3af"/><path d="m241.663 184.253h47.095c10.886 0 19.71-8.824 19.71-19.71v-58.517h14.132c17.562 0 26.357-21.233 13.939-33.651l-60.277-60.277c8.16 18.764 12.684 39.479 12.684 61.249 0 43.582-18.144 82.926-47.283 110.906z" fill="#009887"/><path d="m238.296 31.862c-.031-.035-.061-.07-.092-.105-5.577-6.388-15.383-6.74-21.379-.744l-28.923 28.923c-5.735 5.735-5.696 15.036.071 20.739.07.069.14.139.21.208 5.722 5.659 14.936 5.648 20.626-.044l28.821-28.826c5.494-5.494 5.777-14.299.666-20.151z" fill="#58ddc6"/></g><g><g><path d="m170.458 168.645-23.382-34.52c-3.966-5.856-12.592-5.856-16.559 0l-23.382 34.52c-4.498 6.64.259 15.608 8.279 15.608h46.764c8.021 0 12.778-8.967 8.28-15.608z" fill="#79ff79"/><path d="m162.178 184.253h-18.54c2.56-5.44 3.99-11.52 3.99-17.93 0-13.53-6.36-25.57-16.25-33.3 4.25-4.72 12-4.36 15.7 1.1l23.38 34.52c4.5 6.64-.26 15.61-8.28 15.61z" fill="#29e088"/></g><g><path d="m404.864 168.645-23.382-34.52c-3.966-5.856-12.592-5.856-16.559 0l-23.382 34.52c-4.498 6.64.259 15.608 8.279 15.608h46.764c8.021 0 12.778-8.967 8.28-15.608z" fill="#79ff79"/><path d="m396.584 184.253h-18.54c2.56-5.44 3.99-11.52 3.99-17.93 0-13.53-6.36-25.57-16.25-33.3 4.25-4.72 12-4.36 15.7 1.1l23.38 34.52c4.5 6.64-.26 15.61-8.28 15.61z" fill="#29e088"/></g></g></g></svg>